<svg xmlns="http://www.w3.org/2000/svg" width="540" height="557" viewBox="0 0 540 557" version="1.1"><path d="M 367.500 16.107 C 356.724 17.240, 339.876 20.521, 329.718 23.465 C 323.053 25.396, 320.604 25.693, 317.446 24.954 C 309.178 23.017, 290.496 21, 280.827 21 C 259.883 21, 242.035 25.199, 224.884 34.162 L 215.269 39.187 203.962 35.532 C 176.711 26.722, 152.886 22.730, 127 22.636 C 97.657 22.530, 78.790 27.235, 60.282 39.273 C 37.215 54.276, 23.995 76.925, 17.831 112 C 17.006 116.694, 16.524 127.544, 16.541 141 C 16.566 159.972, 16.893 164.322, 19.325 178 C 33.914 260.052, 57.944 333.668, 82.144 370.446 C 89.346 381.392, 99.027 390.979, 107 395.061 C 112.720 397.989, 114.463 398.396, 121.518 398.444 C 128.587 398.493, 130.309 398.120, 136.071 395.285 C 143.470 391.643, 147.242 387.909, 170.726 360.967 C 179.100 351.360, 188.100 341.111, 190.726 338.191 L 195.500 332.882 201.176 335.396 C 206.086 337.570, 217.190 340.300, 224.856 341.218 C 227.068 341.483, 226.845 341.956, 221.186 349 C 212.987 359.205, 211.382 360.049, 191.524 364.594 C 168.928 369.766, 161.068 376.111, 163.958 386.844 C 165.959 394.274, 176.148 400.793, 190.843 404.042 C 201.463 406.391, 219.507 406.599, 229.471 404.489 C 237.819 402.720, 249.584 397.308, 256.611 392.004 L 261.721 388.146 262.294 424.323 C 263.133 477.316, 265.330 493.968, 273.723 510.958 C 282.303 528.325, 296.074 539.145, 313.299 542.050 C 335.555 545.804, 369.490 535.547, 384.511 520.526 C 392.007 513.030, 398.964 499.851, 401.945 487.500 C 404.903 475.246, 413.317 414.898, 415.587 389.661 C 416.290 381.845, 416.299 381.824, 418.896 382.454 C 420.328 382.802, 427.212 383.350, 434.193 383.674 C 466.954 385.190, 495.225 376.036, 514.854 357.554 C 523.392 349.516, 525.888 342.552, 522.547 336.091 C 521.144 333.378, 518.312 331.723, 512.938 330.473 C 511.528 330.145, 503.447 331.030, 494.979 332.439 C 476.843 335.456, 459.296 335.871, 451.224 333.474 C 448.398 332.635, 445.849 331.565, 445.560 331.096 C 445.270 330.628, 449.327 323.102, 454.575 314.372 C 480.911 270.565, 503.264 216.561, 513.475 172.073 C 524.706 123.139, 524.241 90.569, 512.050 72.312 C 506.856 64.535, 489.405 47.668, 479.985 41.320 C 449.207 20.581, 409.531 11.688, 367.500 16.107 M 361 32.557 C 356.325 33.304, 351.938 33.934, 351.250 33.958 C 348.696 34.044, 350.140 35.669, 354.750 37.895 C 382.485 51.290, 410.867 78.495, 428.678 108.759 C 435.355 120.104, 439.999 130.010, 443.589 140.566 C 445.945 147.492, 446.265 149.896, 446.111 159.492 C 446.014 165.537, 444.968 177.012, 443.787 184.992 C 441.174 202.644, 441.020 222.247, 443.356 239.970 C 446.895 266.819, 444.871 287.945, 437.189 304.337 C 433.867 311.428, 433.412 313.097, 434.545 314.037 C 436.175 315.390, 438.652 311.740, 450.514 290.500 C 478.538 240.321, 500.446 176.342, 505.100 131.087 C 505.756 124.711, 506.026 114.121, 505.713 107.087 C 504.958 90.165, 503.093 84.911, 494.241 74.757 C 474.360 51.955, 446.909 37.301, 415 32.455 C 403.061 30.641, 372.622 30.699, 361 32.557 M 268.889 37.045 C 241.625 39.477, 219.236 51.634, 203.489 72.558 C 193.175 86.262, 185.393 103.083, 180.048 123.226 C 175.675 139.706, 172.564 161, 174.529 161 C 174.819 161, 177.757 159.637, 181.056 157.972 C 190.055 153.429, 203.401 149.321, 213.527 147.976 C 238.970 144.597, 257.049 155.369, 263.464 177.730 C 268.093 193.865, 271.120 223.764, 269.970 242.001 C 268.754 261.287, 266.092 271.591, 256.597 293.767 C 250.533 307.929, 244 325.636, 244 327.910 C 244 328.528, 245.870 329, 248.322 329 C 258.903 329, 268.737 335.658, 274.026 346.402 L 277.126 352.699 277.430 400.600 C 277.857 468.064, 279.651 487.568, 286.793 502.393 C 291.717 512.612, 298.348 520.044, 305.797 523.691 C 310.720 526.101, 312.960 526.533, 322.167 526.849 C 331.239 527.161, 334.379 526.818, 343.167 524.555 C 374.184 516.570, 384.257 504.377, 389.886 468 C 394.650 437.213, 400.534 388.618, 401.994 368 C 403.189 351.116, 404.779 344.757, 409.277 338.859 C 412.039 335.237, 419.030 330.490, 424.078 328.807 C 424.969 328.510, 423.196 325.421, 418.697 319.432 C 412.526 311.217, 408.125 303.292, 385.968 260.500 C 371.928 233.385, 364.450 211.365, 363.327 193.831 C 361.963 172.529, 368.634 158.757, 384.098 150.950 C 392.571 146.674, 401.327 145.038, 415.858 145.017 L 428.217 145 427.564 142.250 C 426.408 137.385, 416.306 117.758, 410.451 109 C 391.810 81.122, 367.555 60.196, 340.269 48.452 C 319.221 39.393, 291.761 35.005, 268.889 37.045 M 104.500 39.040 C 76.357 43.341, 54.178 58.654, 43.121 81.415 C 36.480 95.087, 33.536 107.259, 31.975 127.500 C 30.422 147.631, 32.098 164.392, 39.124 199 C 56.715 285.651, 84.797 358.131, 108.213 377.318 C 113.477 381.631, 116.837 383, 122.164 383 C 130.484 383, 130.880 382.645, 162.128 347.195 C 170.032 338.227, 177.810 329.347, 179.411 327.462 L 182.322 324.034 177.214 318.633 C 161.972 302.517, 153.987 280.371, 155.351 258 C 155.669 252.775, 156.445 244, 157.074 238.500 C 157.835 231.847, 158.015 218.288, 157.612 197.991 C 157.130 173.703, 157.325 164.732, 158.568 153.991 C 163.314 112.964, 175.486 81.136, 195.414 57.645 L 201.070 50.977 198.435 49.975 C 193.157 47.969, 173.218 43.017, 162 40.926 C 149.056 38.515, 115.202 37.404, 104.500 39.040 M 404.402 160.997 C 384.144 163.967, 376.693 174.125, 379.077 195.524 C 380.827 211.245, 388.353 231.554, 402.048 257.515 C 406.976 266.857, 413.585 279.563, 416.734 285.750 C 419.883 291.938, 422.788 297, 423.190 297 C 424.431 297, 428.051 283.918, 429.138 275.500 C 430.236 267.007, 429.788 256.971, 427.443 237.530 C 425.455 221.041, 425.633 202.677, 427.944 185.742 C 429.013 177.909, 430.025 169.250, 430.194 166.500 L 430.500 161.500 425 160.849 C 417.904 160.009, 410.793 160.060, 404.402 160.997 M 207.198 165.023 C 197.354 167.602, 184.517 172.928, 178.238 177.039 L 173.084 180.413 173.665 201.457 C 174.030 214.691, 173.803 227.139, 173.054 235 C 170.563 261.145, 170.536 270.749, 172.927 279.467 C 176.174 291.303, 181.354 300.387, 189.484 308.505 C 199.370 318.376, 211.628 324.346, 223.765 325.200 L 228.030 325.500 232.027 313.621 C 234.225 307.087, 238.688 295.612, 241.945 288.121 C 253.280 262.050, 256.365 244.569, 254.165 218.878 C 252.912 204.247, 249.949 186.715, 247.394 178.807 C 242.986 165.166, 227.250 159.770, 207.198 165.023 M 394.962 170.250 C 389.221 173.145, 388.658 175.944, 392.998 179.998 C 398.920 185.530, 407.279 184.863, 412.950 178.404 C 418.831 171.706, 416.058 168, 405.165 168 C 401.200 168, 398.043 168.696, 394.962 170.250 M 215.750 173.572 C 212.437 175.369, 212.231 178.020, 215.050 182.582 C 218.377 187.964, 223.133 190.320, 229.592 189.784 C 234.122 189.408, 235.662 188.751, 238.532 185.969 C 244 180.669, 242.860 176.929, 234.746 173.538 C 230.065 171.582, 219.382 171.601, 215.750 173.572 M 429.813 343.708 C 422.158 346.031, 419.310 349.741, 418.384 358.598 C 417.601 366.092, 418.228 366.671, 428.806 368.213 C 434.961 369.110, 439.763 369.111, 449.180 368.218 C 464.553 366.759, 475.205 364.036, 485.500 358.931 C 493.566 354.931, 503.568 348.234, 502.729 347.395 C 502.479 347.146, 498.424 347.613, 493.717 348.434 C 471.094 352.379, 451.913 351.351, 440.445 345.580 C 434.416 342.545, 433.929 342.459, 429.813 343.708 M 245.941 345.342 C 244.604 346.009, 239.637 351.205, 234.904 356.889 C 222.399 371.908, 218.093 374.347, 193.947 380.088 C 186.819 381.782, 181.245 383.588, 181.562 384.100 C 183.366 387.020, 200.937 391.011, 211.860 390.983 C 228.459 390.939, 241.591 385.530, 253.144 373.977 C 262.063 365.058, 263.327 361.763, 260.583 354.579 C 258.672 349.574, 256.818 347.658, 251.900 345.603 C 249.058 344.415, 247.901 344.365, 245.941 345.342" stroke="none" fill="#f9f9fa" fill-rule="evenodd"/><path d="M 367.500 0.670 C 356.619 2.015, 343.007 4.406, 333.955 6.563 C 323.443 9.069, 323.371 9.072, 310.985 7.538 C 304.151 6.692, 291.346 6.002, 282.530 6.004 C 257.748 6.010, 241.537 9.291, 223.241 18.002 L 212.982 22.886 207.241 20.903 C 204.083 19.812, 196.325 17.611, 190 16.012 C 133.698 1.782, 87.792 4.890, 54.149 25.212 C 44.291 31.167, 32.220 42.261, 24.994 52.008 C 14.454 66.226, 5.859 88.619, 2.353 111 C 0.024 125.865, 0.031 156.814, 2.368 172 C 8.841 214.073, 23.875 274.145, 37.564 312.636 C 58.528 371.581, 79.835 402.617, 106.500 413.049 C 111.398 414.965, 114.337 415.391, 122.500 415.371 C 131.112 415.349, 133.436 414.960, 139.243 412.570 C 142.951 411.043, 147.785 408.490, 149.984 406.897 C 152.183 405.303, 154.270 404, 154.620 404 C 154.971 404, 157.069 405.637, 159.284 407.638 C 175.855 422.608, 216.229 427.669, 243.271 418.165 L 248.612 416.288 249.813 441.394 C 251.546 477.589, 253.338 489.322, 260.217 509.500 C 269.049 535.408, 282.156 549.629, 302.710 555.604 C 311.504 558.161, 337.520 557.124, 350 553.720 C 373.476 547.316, 388.144 538.358, 399.481 523.500 C 412.607 506.298, 420.398 484.111, 424.412 452.500 C 425.859 441.109, 428 412.706, 428 404.907 L 428 401.280 444.250 400.687 C 474.065 399.599, 492.929 393.986, 513.891 379.965 C 524.257 373.031, 534.292 362.717, 537.615 355.580 C 539.447 351.645, 539.983 348.780, 539.990 342.872 C 540.002 334.032, 538.476 329.639, 533.469 324.097 C 525.898 315.717, 513.980 313.466, 495 316.832 C 488.675 317.954, 480.600 319.179, 477.056 319.556 L 470.612 320.241 472.158 317.871 C 476.296 311.528, 488.688 287.800, 495.330 273.500 C 534.219 189.779, 548.335 107.322, 529.998 70.995 C 521.014 53.199, 496.667 31.142, 472.270 18.698 C 446.111 5.356, 421.566 -0.073, 388.500 0.168 C 378.600 0.240, 369.150 0.466, 367.500 0.670 M 367.500 16.107 C 356.724 17.240, 339.876 20.521, 329.718 23.465 C 323.053 25.396, 320.604 25.693, 317.446 24.954 C 309.178 23.017, 290.496 21, 280.827 21 C 259.883 21, 242.035 25.199, 224.884 34.162 L 215.269 39.187 203.962 35.532 C 176.711 26.722, 152.886 22.730, 127 22.636 C 97.657 22.530, 78.790 27.235, 60.282 39.273 C 37.215 54.276, 23.995 76.925, 17.831 112 C 17.006 116.694, 16.524 127.544, 16.541 141 C 16.566 159.972, 16.893 164.322, 19.325 178 C 33.914 260.052, 57.944 333.668, 82.144 370.446 C 89.346 381.392, 99.027 390.979, 107 395.061 C 112.720 397.989, 114.463 398.396, 121.518 398.444 C 128.587 398.493, 130.309 398.120, 136.071 395.285 C 143.470 391.643, 147.242 387.909, 170.726 360.967 C 179.100 351.360, 188.100 341.111, 190.726 338.191 L 195.500 332.882 201.176 335.396 C 206.086 337.570, 217.190 340.300, 224.856 341.218 C 227.068 341.483, 226.845 341.956, 221.186 349 C 212.987 359.205, 211.382 360.049, 191.524 364.594 C 168.928 369.766, 161.068 376.111, 163.958 386.844 C 165.959 394.274, 176.148 400.793, 190.843 404.042 C 201.463 406.391, 219.507 406.599, 229.471 404.489 C 237.819 402.720, 249.584 397.308, 256.611 392.004 L 261.721 388.146 262.294 424.323 C 263.133 477.316, 265.330 493.968, 273.723 510.958 C 282.303 528.325, 296.074 539.145, 313.299 542.050 C 335.555 545.804, 369.490 535.547, 384.511 520.526 C 392.007 513.030, 398.964 499.851, 401.945 487.500 C 404.903 475.246, 413.317 414.898, 415.587 389.661 C 416.290 381.845, 416.299 381.824, 418.896 382.454 C 420.328 382.802, 427.212 383.350, 434.193 383.674 C 466.954 385.190, 495.225 376.036, 514.854 357.554 C 523.392 349.516, 525.888 342.552, 522.547 336.091 C 521.144 333.378, 518.312 331.723, 512.938 330.473 C 511.528 330.145, 503.447 331.030, 494.979 332.439 C 476.843 335.456, 459.296 335.871, 451.224 333.474 C 448.398 332.635, 445.849 331.565, 445.560 331.096 C 445.270 330.628, 449.327 323.102, 454.575 314.372 C 480.911 270.565, 503.264 216.561, 513.475 172.073 C 524.706 123.139, 524.241 90.569, 512.050 72.312 C 506.856 64.535, 489.405 47.668, 479.985 41.320 C 449.207 20.581, 409.531 11.688, 367.500 16.107 M 361 32.557 C 356.325 33.304, 351.938 33.934, 351.250 33.958 C 348.696 34.044, 350.140 35.669, 354.750 37.895 C 382.485 51.290, 410.867 78.495, 428.678 108.759 C 435.355 120.104, 439.999 130.010, 443.589 140.566 C 445.945 147.492, 446.265 149.896, 446.111 159.492 C 446.014 165.537, 444.968 177.012, 443.787 184.992 C 441.174 202.644, 441.020 222.247, 443.356 239.970 C 446.895 266.819, 444.871 287.945, 437.189 304.337 C 433.867 311.428, 433.412 313.097, 434.545 314.037 C 436.175 315.390, 438.652 311.740, 450.514 290.500 C 478.538 240.321, 500.446 176.342, 505.100 131.087 C 505.756 124.711, 506.026 114.121, 505.713 107.087 C 504.958 90.165, 503.093 84.911, 494.241 74.757 C 474.360 51.955, 446.909 37.301, 415 32.455 C 403.061 30.641, 372.622 30.699, 361 32.557 M 268.889 37.045 C 241.625 39.477, 219.236 51.634, 203.489 72.558 C 193.175 86.262, 185.393 103.083, 180.048 123.226 C 175.675 139.706, 172.564 161, 174.529 161 C 174.819 161, 177.757 159.637, 181.056 157.972 C 190.055 153.429, 203.401 149.321, 213.527 147.976 C 238.970 144.597, 257.049 155.369, 263.464 177.730 C 268.093 193.865, 271.120 223.764, 269.970 242.001 C 268.754 261.287, 266.092 271.591, 256.597 293.767 C 250.533 307.929, 244 325.636, 244 327.910 C 244 328.528, 245.870 329, 248.322 329 C 258.903 329, 268.737 335.658, 274.026 346.402 L 277.126 352.699 277.430 400.600 C 277.857 468.064, 279.651 487.568, 286.793 502.393 C 291.717 512.612, 298.348 520.044, 305.797 523.691 C 310.720 526.101, 312.960 526.533, 322.167 526.849 C 331.239 527.161, 334.379 526.818, 343.167 524.555 C 374.184 516.570, 384.257 504.377, 389.886 468 C 394.650 437.213, 400.534 388.618, 401.994 368 C 403.189 351.116, 404.779 344.757, 409.277 338.859 C 412.039 335.237, 419.030 330.490, 424.078 328.807 C 424.969 328.510, 423.196 325.421, 418.697 319.432 C 412.526 311.217, 408.125 303.292, 385.968 260.500 C 371.928 233.385, 364.450 211.365, 363.327 193.831 C 361.963 172.529, 368.634 158.757, 384.098 150.950 C 392.571 146.674, 401.327 145.038, 415.858 145.017 L 428.217 145 427.564 142.250 C 426.408 137.385, 416.306 117.758, 410.451 109 C 391.810 81.122, 367.555 60.196, 340.269 48.452 C 319.221 39.393, 291.761 35.005, 268.889 37.045 M 104.500 39.040 C 76.357 43.341, 54.178 58.654, 43.121 81.415 C 36.480 95.087, 33.536 107.259, 31.975 127.500 C 30.422 147.631, 32.098 164.392, 39.124 199 C 56.715 285.651, 84.797 358.131, 108.213 377.318 C 113.477 381.631, 116.837 383, 122.164 383 C 130.484 383, 130.880 382.645, 162.128 347.195 C 170.032 338.227, 177.810 329.347, 179.411 327.462 L 182.322 324.034 177.214 318.633 C 161.972 302.517, 153.987 280.371, 155.351 258 C 155.669 252.775, 156.445 244, 157.074 238.500 C 157.835 231.847, 158.015 218.288, 157.612 197.991 C 157.130 173.703, 157.325 164.732, 158.568 153.991 C 163.314 112.964, 175.486 81.136, 195.414 57.645 L 201.070 50.977 198.435 49.975 C 193.157 47.969, 173.218 43.017, 162 40.926 C 149.056 38.515, 115.202 37.404, 104.500 39.040 M 404.402 160.997 C 384.144 163.967, 376.693 174.125, 379.077 195.524 C 380.827 211.245, 388.353 231.554, 402.048 257.515 C 406.976 266.857, 413.585 279.563, 416.734 285.750 C 419.883 291.938, 422.788 297, 423.190 297 C 424.431 297, 428.051 283.918, 429.138 275.500 C 430.236 267.007, 429.788 256.971, 427.443 237.530 C 425.455 221.041, 425.633 202.677, 427.944 185.742 C 429.013 177.909, 430.025 169.250, 430.194 166.500 L 430.500 161.500 425 160.849 C 417.904 160.009, 410.793 160.060, 404.402 160.997 M 207.198 165.023 C 197.354 167.602, 184.517 172.928, 178.238 177.039 L 173.084 180.413 173.665 201.457 C 174.030 214.691, 173.803 227.139, 173.054 235 C 170.563 261.145, 170.536 270.749, 172.927 279.467 C 176.174 291.303, 181.354 300.387, 189.484 308.505 C 199.370 318.376, 211.628 324.346, 223.765 325.200 L 228.030 325.500 232.027 313.621 C 234.225 307.087, 238.688 295.612, 241.945 288.121 C 253.280 262.050, 256.365 244.569, 254.165 218.878 C 252.912 204.247, 249.949 186.715, 247.394 178.807 C 242.986 165.166, 227.250 159.770, 207.198 165.023 M 394.962 170.250 C 389.221 173.145, 388.658 175.944, 392.998 179.998 C 398.920 185.530, 407.279 184.863, 412.950 178.404 C 418.831 171.706, 416.058 168, 405.165 168 C 401.200 168, 398.043 168.696, 394.962 170.250 M 215.750 173.572 C 212.437 175.369, 212.231 178.020, 215.050 182.582 C 218.377 187.964, 223.133 190.320, 229.592 189.784 C 234.122 189.408, 235.662 188.751, 238.532 185.969 C 244 180.669, 242.860 176.929, 234.746 173.538 C 230.065 171.582, 219.382 171.601, 215.750 173.572 M 429.813 343.708 C 422.158 346.031, 419.310 349.741, 418.384 358.598 C 417.601 366.092, 418.228 366.671, 428.806 368.213 C 434.961 369.110, 439.763 369.111, 449.180 368.218 C 464.553 366.759, 475.205 364.036, 485.500 358.931 C 493.566 354.931, 503.568 348.234, 502.729 347.395 C 502.479 347.146, 498.424 347.613, 493.717 348.434 C 471.094 352.379, 451.913 351.351, 440.445 345.580 C 434.416 342.545, 433.929 342.459, 429.813 343.708 M 245.941 345.342 C 244.604 346.009, 239.637 351.205, 234.904 356.889 C 222.399 371.908, 218.093 374.347, 193.947 380.088 C 186.819 381.782, 181.245 383.588, 181.562 384.100 C 183.366 387.020, 200.937 391.011, 211.860 390.983 C 228.459 390.939, 241.591 385.530, 253.144 373.977 C 262.063 365.058, 263.327 361.763, 260.583 354.579 C 258.672 349.574, 256.818 347.658, 251.900 345.603 C 249.058 344.415, 247.901 344.365, 245.941 345.342" stroke="none" fill="#2c537a" fill-rule="evenodd"/></svg>